<?xml version="1.0" encoding="UTF-8"?><svg id="Layer_2" xmlns="http://www.w3.org/2000/svg" viewBox="0 0 303.74 72"><defs><style>.cls-1{fill:#fff;}</style></defs><g id="Layer_1-2"><path class="cls-1" d="m47.07,49.82h5.5c-.46,3.21-2.93,5.19-5.93,5.19-4.58,0-6.41-3.57-6.41-7.64s1.86-7.79,6.44-7.79c2.84,0,4.92,1.31,5.5,3.97h4.15c-.49-4.48-4.28-7.23-8.73-7.57,4.44-.35,8.22-3.09,8.7-7.56h-4.15c-.58,2.66-2.66,3.97-5.5,3.97-4.58,0-6.44-3.6-6.44-7.79s1.83-7.64,6.41-7.64c2.99,0,5.47,1.99,5.93,5.19h-5.5v3.42h9.47v-11.79h-3.63v2.72c-1.4-2.02-3.7-3.21-7.02-3.21-5.53,0-9.53,4.37-9.86,10.48-.33-6.11-4.33-10.48-9.86-10.48-3.33,0-5.62,1.19-7.02,3.21v-2.72h-3.63v11.79h9.47v-3.42h-5.5c.46-3.21,2.93-5.19,5.93-5.19,4.58,0,6.41,3.57,6.41,7.64s-1.86,7.79-6.44,7.79c-2.84,0-4.92-1.31-5.5-3.97h-4.15c.48,4.48,4.28,7.23,8.73,7.57-4.44.35-8.22,3.09-8.7,7.56h4.15c.58-2.66,2.66-3.97,5.5-3.97,4.58,0,6.44,3.6,6.44,7.79s-1.83,7.64-6.41,7.64c-2.99,0-5.47-1.99-5.93-5.19h5.5v-3.42h-9.47v11.79h3.63v-2.72c1.4,2.02,3.7,3.21,7.02,3.21,5.53,0,9.53-4.37,9.86-10.48.33,6.11,4.34,10.48,9.86,10.48,3.33,0,5.62-1.19,7.02-3.21v2.72h3.63v-11.79h-9.47v3.42Zm-11.05-3.27c-.32-5.84-3.97-10.18-9.8-10.56,5.81-.39,9.45-4.73,9.77-10.56.32,5.84,3.97,10.18,9.8,10.56-5.81.39-9.45,4.73-9.77,10.56Z"/><path class="cls-1" d="m61.46,10.54C54.66,3.74,45.62,0,36,0S17.34,3.74,10.54,10.54C3.74,17.34,0,26.38,0,36s3.74,18.66,10.54,25.46c6.8,6.8,15.84,10.54,25.46,10.54s18.66-3.74,25.46-10.54c6.8-6.8,10.54-15.84,10.54-25.46s-3.74-18.66-10.54-25.46Zm-2.75,48.16c-6.07,6.07-14.13,9.41-22.71,9.41s-16.64-3.34-22.71-9.41c-6.07-6.07-9.41-14.13-9.41-22.71s3.34-16.64,9.41-22.71c6.07-6.07,14.13-9.41,22.71-9.41s16.64,3.34,22.71,9.41c6.07,6.07,9.41,14.13,9.41,22.71s-3.34,16.64-9.41,22.71Z"/><path class="cls-1" d="m122.46,34.13v24.05h-7.42v-5.55c-2.87,4.11-7.54,6.54-14.33,6.54-11.78,0-20.19-9.72-20.19-23.05s8.29-23.31,21.75-23.31c9.91,0,18.69,5.73,19.75,15.52h-8.47c-1.18-5.42-5.42-8.1-11.22-8.1-9.35,0-13.15,7.35-13.15,15.89s3.74,15.58,13.08,15.58c6.11,0,11.15-4.05,12.09-10.59h-11.22v-6.98h19.32Z"/><polygon class="cls-1" points="132.26 58.18 124.53 58.18 140.42 13.82 148.15 13.82 132.26 58.18"/><polygon class="cls-1" points="181.51 21.48 158.7 21.48 158.7 31.76 179.51 31.76 179.51 39.18 158.7 39.18 158.7 58.18 150.1 58.18 150.1 13.82 181.51 13.82 181.51 21.48"/><path class="cls-1" d="m205.7,59.18c-12.96,0-23.18-10.09-23.18-23.18s10.22-23.18,23.18-23.18,23.18,10.1,23.18,23.18-10.22,23.18-23.18,23.18m0-8.04c8.41,0,14.89-6.67,14.89-15.14s-6.48-15.14-14.89-15.14-14.89,6.73-14.89,15.14,6.54,15.14,14.89,15.14"/><path class="cls-1" d="m252.31,13.82c9.47,0,14.58,5.48,14.58,12.34,0,5.86-3.68,9.6-9.16,11.22l11.28,20.81h-9.35l-10.47-19.88h-8.85v19.88h-8.6V13.82h20.56Zm-.8,17.76c4.8,0,6.98-1.93,6.98-5.42s-2.18-5.3-6.98-5.3h-10.72v10.72h10.72Z"/><polygon class="cls-1" points="303.74 21.48 279.56 21.48 279.56 31.76 301.5 31.76 301.5 39.12 279.56 39.12 279.56 50.46 303.62 50.46 303.62 58.18 270.96 58.18 270.96 13.82 303.74 13.82 303.74 21.48"/></g></svg>